<svg xmlns="http://www.w3.org/2000/svg" width="375" viewBox="0 0 375 375" height="375" version="1.0"><defs><clipPath id="a"><path d="M 5.265625 5.265625 L 369.761719 5.265625 L 369.761719 369.761719 L 5.265625 369.761719 Z M 5.265625 5.265625"/></clipPath></defs><g clip-path="url(#a)"><path fill="#5E17EB" d="M 369.761719 188.113281 C 369.429688 288.765625 287.570312 370.09375 186.914062 369.761719 C 86.261719 369.429688 4.933594 287.570312 5.265625 186.917969 C 5.597656 86.265625 87.457031 4.933594 188.109375 5.269531 C 288.761719 5.597656 370.09375 87.460938 369.761719 188.113281"/></g><path fill="#E174FF" d="M 344.558594 188.03125 C 344.269531 274.761719 273.730469 344.84375 187 344.558594 C 100.265625 344.269531 30.1875 273.730469 30.46875 187 C 30.757812 100.265625 101.296875 30.1875 188.027344 30.472656 C 274.761719 30.757812 344.839844 101.300781 344.558594 188.03125"/><path fill="#5E17EB" d="M 331.726562 187.988281 C 331.464844 267.636719 266.6875 331.988281 187.039062 331.726562 C 107.394531 331.464844 43.039062 266.6875 43.304688 187.042969 C 43.566406 107.394531 108.339844 43.042969 187.988281 43.304688 C 267.632812 43.566406 331.988281 108.339844 331.726562 187.988281"/><path fill="#E174FF" d="M 190.164062 240.46875 C 178.789062 240.945312 168.800781 240.386719 168.800781 240.386719 L 168.800781 195.390625 C 168.800781 195.390625 182.554688 194.980469 191.871094 195.390625 C 207.675781 196.082031 232.398438 196.601562 232.398438 217.9375 C 232.398438 241.957031 205.191406 239.839844 190.164062 240.46875 M 168.800781 134.867188 C 168.800781 134.867188 182.554688 134.460938 191.871094 134.867188 C 207.675781 135.558594 222.632812 139.308594 222.632812 156.507812 C 222.632812 175.828125 205.191406 179.316406 190.164062 179.945312 C 178.789062 180.425781 168.800781 179.867188 168.800781 179.867188 L 168.800781 134.867188 M 247.902344 185.316406 C 263.648438 178.359375 263.59375 150.058594 263.59375 150.058594 C 263.222656 103.917969 210.179688 106.945312 210.179688 106.945312 L 210.179688 64.832031 L 188.574219 64.832031 L 188.574219 106.945312 L 168.800781 106.945312 L 168.800781 64.832031 L 149.023438 64.832031 L 149.023438 106.945312 L 102.882812 106.945312 L 102.882812 134.777344 L 127.902344 134.867188 L 127.785156 241.351562 L 102.882812 241.714844 L 102.882812 269.546875 L 148.535156 270.523438 L 148.535156 310.199219 L 168.960938 310.199219 L 168.921875 271.011719 L 190.527344 271.132812 L 190.40625 310.199219 L 211.644531 310.199219 L 211.644531 271.746094 L 215.671875 271.746094 C 231.789062 271.746094 270.484375 268.570312 272.074219 226.578125 C 273.65625 184.855469 247.902344 185.316406 247.902344 185.316406"/><path fill="#7444FF" d="M 59.511719 189.199219 C 58.449219 189.199219 57.511719 188.792969 56.707031 187.929688 C 48.011719 178.660156 60.722656 118.839844 96.050781 85.71875 C 121.839844 61.542969 153.246094 51.59375 171.710938 51.59375 C 178.539062 51.59375 183.59375 52.953125 185.941406 55.457031 C 190.609375 60.433594 182.644531 69.304688 168.800781 81.578125 L 168.800781 64.832031 L 149.023438 64.832031 L 149.023438 98.570312 C 145.878906 101.261719 142.632812 104.054688 139.324219 106.945312 L 102.882812 106.945312 L 102.882812 134.777344 L 110.203125 134.808594 C 85.621094 161.527344 68.289062 189.199219 59.511719 189.199219"/><path fill="#DC5FFF" d="M 110.203125 134.808594 L 102.882812 134.777344 L 102.882812 106.945312 L 139.324219 106.945312 C 134.367188 111.285156 129.277344 115.851562 124.179688 120.628906 C 119.289062 125.210938 114.628906 129.992188 110.203125 134.808594 M 149.023438 98.570312 L 149.023438 64.832031 L 168.800781 64.832031 L 168.800781 81.578125 C 163.058594 86.667969 156.304688 92.34375 149.023438 98.570312"/></svg>