<svg xmlns="http://www.w3.org/2000/svg" width="375" viewBox="0 0 375 375" height="375" version="1.0"><defs><clipPath id="a"><path d="M 8.765625 8.765625 L 366.515625 8.765625 L 366.515625 366.515625 L 8.765625 366.515625 Z M 8.765625 8.765625"/></clipPath></defs><path fill="#FFEB3B" d="M 360.550781 187.640625 C 360.550781 190.46875 360.484375 193.296875 360.34375 196.125 C 360.207031 198.949219 359.996094 201.773438 359.71875 204.589844 C 359.441406 207.40625 359.097656 210.210938 358.679688 213.011719 C 358.265625 215.808594 357.78125 218.597656 357.230469 221.375 C 356.675781 224.148438 356.058594 226.910156 355.371094 229.652344 C 354.683594 232.398438 353.929688 235.125 353.105469 237.832031 C 352.285156 240.542969 351.398438 243.226562 350.445312 245.890625 C 349.492188 248.554688 348.472656 251.195312 347.390625 253.808594 C 346.308594 256.425781 345.160156 259.011719 343.949219 261.570312 C 342.742188 264.128906 341.46875 266.65625 340.136719 269.148438 C 338.800781 271.644531 337.40625 274.105469 335.953125 276.535156 C 334.496094 278.960938 332.984375 281.351562 331.410156 283.703125 C 329.839844 286.058594 328.210938 288.371094 326.523438 290.644531 C 324.839844 292.917969 323.097656 295.148438 321.304688 297.335938 C 319.507812 299.523438 317.660156 301.664062 315.757812 303.761719 C 313.859375 305.859375 311.910156 307.90625 309.90625 309.90625 C 307.90625 311.910156 305.859375 313.859375 303.761719 315.757812 C 301.664062 317.660156 299.523438 319.507812 297.335938 321.304688 C 295.148438 323.097656 292.917969 324.839844 290.644531 326.523438 C 288.371094 328.210938 286.058594 329.839844 283.703125 331.410156 C 281.351562 332.984375 278.960938 334.496094 276.535156 335.953125 C 274.105469 337.40625 271.644531 338.800781 269.148438 340.136719 C 266.65625 341.46875 264.128906 342.742188 261.570312 343.949219 C 259.011719 345.160156 256.425781 346.308594 253.808594 347.390625 C 251.195312 348.472656 248.558594 349.492188 245.890625 350.445312 C 243.226562 351.398438 240.542969 352.285156 237.832031 353.105469 C 235.125 353.929688 232.398438 354.683594 229.652344 355.371094 C 226.910156 356.058594 224.148438 356.675781 221.375 357.230469 C 218.597656 357.78125 215.808594 358.265625 213.011719 358.679688 C 210.210938 359.097656 207.40625 359.441406 204.589844 359.71875 C 201.773438 359.996094 198.949219 360.207031 196.125 360.34375 C 193.296875 360.484375 190.46875 360.550781 187.640625 360.550781 C 184.808594 360.550781 181.980469 360.484375 179.15625 360.34375 C 176.328125 360.207031 173.507812 359.996094 170.691406 359.71875 C 167.875 359.441406 165.066406 359.097656 162.269531 358.679688 C 159.46875 358.265625 156.683594 357.78125 153.90625 357.230469 C 151.128906 356.675781 148.371094 356.058594 145.625 355.371094 C 142.878906 354.683594 140.152344 353.929688 137.445312 353.105469 C 134.738281 352.285156 132.050781 351.398438 129.386719 350.445312 C 126.722656 349.492188 124.082031 348.472656 121.46875 347.390625 C 118.855469 346.308594 116.269531 345.160156 113.710938 343.949219 C 111.152344 342.742188 108.625 341.46875 106.128906 340.136719 C 103.632812 338.800781 101.171875 337.40625 98.746094 335.953125 C 96.316406 334.496094 93.925781 332.984375 91.574219 331.410156 C 89.222656 329.839844 86.910156 328.210938 84.636719 326.523438 C 82.363281 324.839844 80.132812 323.097656 77.945312 321.304688 C 75.757812 319.507812 73.617188 317.660156 71.519531 315.757812 C 69.421875 313.859375 67.375 311.910156 65.371094 309.90625 C 63.371094 307.90625 61.421875 305.859375 59.519531 303.761719 C 57.621094 301.664062 55.773438 299.523438 53.976562 297.335938 C 52.179688 295.148438 50.441406 292.917969 48.753906 290.644531 C 47.070312 288.371094 45.441406 286.058594 43.867188 283.703125 C 42.296875 281.351562 40.78125 278.960938 39.328125 276.535156 C 37.871094 274.105469 36.480469 271.644531 35.144531 269.148438 C 33.8125 266.65625 32.539062 264.128906 31.328125 261.570312 C 30.117188 259.011719 28.972656 256.425781 27.890625 253.808594 C 26.804688 251.195312 25.789062 248.554688 24.835938 245.890625 C 23.882812 243.226562 22.996094 240.542969 22.171875 237.832031 C 21.351562 235.125 20.597656 232.398438 19.910156 229.652344 C 19.222656 226.910156 18.601562 224.148438 18.050781 221.375 C 17.496094 218.597656 17.015625 215.808594 16.597656 213.011719 C 16.183594 210.210938 15.835938 207.40625 15.558594 204.589844 C 15.28125 201.773438 15.074219 198.949219 14.9375 196.125 C 14.796875 193.296875 14.726562 190.46875 14.726562 187.640625 C 14.726562 184.808594 14.796875 181.980469 14.9375 179.15625 C 15.074219 176.328125 15.28125 173.507812 15.558594 170.691406 C 15.835938 167.875 16.183594 165.066406 16.597656 162.269531 C 17.015625 159.46875 17.496094 156.683594 18.050781 153.90625 C 18.601562 151.128906 19.222656 148.371094 19.910156 145.625 C 20.597656 142.878906 21.351562 140.152344 22.171875 137.445312 C 22.996094 134.738281 23.882812 132.050781 24.835938 129.386719 C 25.789062 126.722656 26.804688 124.082031 27.890625 121.46875 C 28.972656 118.855469 30.117188 116.269531 31.328125 113.710938 C 32.539062 111.152344 33.8125 108.625 35.144531 106.128906 C 36.480469 103.632812 37.871094 101.171875 39.328125 98.746094 C 40.78125 96.316406 42.296875 93.925781 43.867188 91.574219 C 45.441406 89.222656 47.070312 86.910156 48.753906 84.636719 C 50.441406 82.363281 52.179688 80.132812 53.976562 77.945312 C 55.773438 75.757812 57.621094 73.617188 59.519531 71.519531 C 61.421875 69.421875 63.371094 67.375 65.371094 65.371094 C 67.375 63.371094 69.421875 61.421875 71.519531 59.519531 C 73.617188 57.621094 75.757812 55.773438 77.945312 53.976562 C 80.132812 52.179688 82.363281 50.441406 84.636719 48.753906 C 86.910156 47.070312 89.222656 45.441406 91.574219 43.867188 C 93.925781 42.296875 96.316406 40.78125 98.746094 39.328125 C 101.171875 37.871094 103.632812 36.480469 106.128906 35.144531 C 108.625 33.8125 111.152344 32.539062 113.710938 31.328125 C 116.269531 30.117188 118.855469 28.972656 121.46875 27.890625 C 124.082031 26.804688 126.722656 25.789062 129.386719 24.835938 C 132.050781 23.882812 134.738281 22.996094 137.445312 22.171875 C 140.152344 21.351562 142.878906 20.597656 145.625 19.910156 C 148.371094 19.222656 151.128906 18.601562 153.90625 18.050781 C 156.683594 17.496094 159.46875 17.015625 162.269531 16.597656 C 165.066406 16.183594 167.875 15.835938 170.691406 15.558594 C 173.507812 15.28125 176.328125 15.074219 179.15625 14.9375 C 181.980469 14.796875 184.808594 14.726562 187.640625 14.726562 C 190.46875 14.726562 193.296875 14.796875 196.125 14.9375 C 198.949219 15.074219 201.773438 15.28125 204.589844 15.558594 C 207.40625 15.835938 210.210938 16.183594 213.011719 16.597656 C 215.808594 17.015625 218.597656 17.496094 221.375 18.050781 C 224.148438 18.601562 226.910156 19.222656 229.652344 19.910156 C 232.398438 20.597656 235.125 21.351562 237.832031 22.171875 C 240.542969 22.996094 243.226562 23.882812 245.890625 24.835938 C 248.558594 25.789062 251.195312 26.804688 253.808594 27.890625 C 256.425781 28.972656 259.011719 30.117188 261.570312 31.328125 C 264.128906 32.539062 266.65625 33.8125 269.148438 35.144531 C 271.644531 36.480469 274.105469 37.871094 276.535156 39.328125 C 278.960938 40.78125 281.351562 42.296875 283.703125 43.867188 C 286.058594 45.441406 288.371094 47.070312 290.644531 48.753906 C 292.917969 50.441406 295.148438 52.179688 297.335938 53.976562 C 299.523438 55.773438 301.664062 57.621094 303.761719 59.519531 C 305.859375 61.421875 307.90625 63.371094 309.90625 65.371094 C 311.910156 67.375 313.859375 69.421875 315.757812 71.519531 C 317.660156 73.617188 319.507812 75.757812 321.304688 77.945312 C 323.097656 80.132812 324.839844 82.363281 326.523438 84.636719 C 328.210938 86.910156 329.839844 89.222656 331.410156 91.574219 C 332.984375 93.925781 334.496094 96.316406 335.953125 98.746094 C 337.40625 101.171875 338.800781 103.632812 340.136719 106.128906 C 341.46875 108.625 342.742188 111.152344 343.949219 113.710938 C 345.160156 116.269531 346.308594 118.855469 347.390625 121.46875 C 348.472656 124.082031 349.492188 126.722656 350.445312 129.386719 C 351.398438 132.050781 352.285156 134.738281 353.105469 137.445312 C 353.929688 140.152344 354.683594 142.878906 355.371094 145.625 C 356.058594 148.371094 356.675781 151.128906 357.230469 153.90625 C 357.78125 156.683594 358.265625 159.46875 358.679688 162.269531 C 359.097656 165.066406 359.441406 167.875 359.71875 170.691406 C 359.996094 173.507812 360.207031 176.328125 360.34375 179.15625 C 360.484375 181.980469 360.550781 184.808594 360.550781 187.640625 Z M 360.550781 187.640625"/><path fill="#FDD835" d="M 336.703125 187.640625 C 336.703125 190.078125 336.640625 192.515625 336.523438 194.953125 C 336.402344 197.390625 336.222656 199.824219 335.984375 202.25 C 335.746094 204.679688 335.445312 207.097656 335.089844 209.511719 C 334.730469 211.925781 334.3125 214.328125 333.839844 216.71875 C 333.363281 219.113281 332.828125 221.492188 332.234375 223.859375 C 331.640625 226.226562 330.992188 228.574219 330.285156 230.910156 C 329.574219 233.246094 328.808594 235.558594 327.988281 237.855469 C 327.167969 240.15625 326.289062 242.429688 325.355469 244.683594 C 324.421875 246.9375 323.433594 249.167969 322.390625 251.371094 C 321.347656 253.578125 320.25 255.753906 319.101562 257.90625 C 317.953125 260.058594 316.75 262.179688 315.496094 264.273438 C 314.242188 266.367188 312.9375 268.425781 311.582031 270.453125 C 310.226562 272.484375 308.820312 274.476562 307.367188 276.4375 C 305.914062 278.394531 304.414062 280.316406 302.867188 282.203125 C 301.320312 284.089844 299.726562 285.9375 298.085938 287.742188 C 296.449219 289.550781 294.769531 291.316406 293.042969 293.042969 C 291.316406 294.769531 289.550781 296.449219 287.742188 298.085938 C 285.9375 299.726562 284.089844 301.320312 282.203125 302.867188 C 280.316406 304.414062 278.394531 305.914062 276.4375 307.367188 C 274.476562 308.820312 272.484375 310.226562 270.453125 311.582031 C 268.425781 312.9375 266.367188 314.242188 264.273438 315.496094 C 262.179688 316.75 260.058594 317.949219 257.90625 319.101562 C 255.757812 320.25 253.578125 321.347656 251.371094 322.390625 C 249.167969 323.433594 246.9375 324.421875 244.683594 325.355469 C 242.429688 326.289062 240.15625 327.167969 237.855469 327.988281 C 235.558594 328.808594 233.246094 329.574219 230.910156 330.285156 C 228.574219 330.992188 226.226562 331.640625 223.859375 332.234375 C 221.492188 332.828125 219.113281 333.363281 216.71875 333.839844 C 214.328125 334.3125 211.925781 334.730469 209.511719 335.089844 C 207.097656 335.445312 204.679688 335.746094 202.25 335.984375 C 199.824219 336.222656 197.390625 336.402344 194.953125 336.523438 C 192.515625 336.640625 190.078125 336.703125 187.640625 336.703125 C 185.199219 336.703125 182.761719 336.640625 180.324219 336.523438 C 177.890625 336.402344 175.457031 336.222656 173.027344 335.984375 C 170.601562 335.746094 168.179688 335.445312 165.769531 335.089844 C 163.355469 334.730469 160.953125 334.3125 158.558594 333.839844 C 156.167969 333.363281 153.785156 332.828125 151.421875 332.234375 C 149.054688 331.640625 146.703125 330.992188 144.371094 330.285156 C 142.035156 329.574219 139.71875 328.808594 137.421875 327.988281 C 135.125 327.167969 132.851562 326.289062 130.597656 325.355469 C 128.34375 324.421875 126.113281 323.433594 123.90625 322.390625 C 121.703125 321.347656 119.523438 320.25 117.371094 319.101562 C 115.222656 317.949219 113.097656 316.75 111.007812 315.496094 C 108.914062 314.242188 106.851562 312.9375 104.824219 311.582031 C 102.796875 310.226562 100.804688 308.820312 98.84375 307.367188 C 96.882812 305.914062 94.960938 304.414062 93.074219 302.867188 C 91.191406 301.320312 89.34375 299.726562 87.535156 298.085938 C 85.726562 296.449219 83.960938 294.769531 82.238281 293.042969 C 80.511719 291.316406 78.828125 289.550781 77.191406 287.742188 C 75.554688 285.9375 73.960938 284.089844 72.414062 282.203125 C 70.867188 280.316406 69.363281 278.394531 67.910156 276.4375 C 66.457031 274.476562 65.054688 272.484375 63.699219 270.453125 C 62.34375 268.425781 61.039062 266.367188 59.785156 264.273438 C 58.53125 262.179688 57.328125 260.058594 56.179688 257.90625 C 55.027344 255.753906 53.933594 253.578125 52.890625 251.371094 C 51.847656 249.167969 50.859375 246.9375 49.925781 244.683594 C 48.992188 242.429688 48.113281 240.15625 47.289062 237.855469 C 46.46875 235.558594 45.703125 233.246094 44.996094 230.910156 C 44.289062 228.574219 43.636719 226.226562 43.042969 223.859375 C 42.453125 221.492188 41.917969 219.113281 41.441406 216.71875 C 40.964844 214.328125 40.546875 211.925781 40.191406 209.511719 C 39.832031 207.097656 39.535156 204.679688 39.296875 202.25 C 39.054688 199.824219 38.875 197.390625 38.757812 194.953125 C 38.636719 192.515625 38.578125 190.078125 38.578125 187.640625 C 38.578125 185.199219 38.636719 182.761719 38.757812 180.324219 C 38.875 177.890625 39.054688 175.457031 39.296875 173.027344 C 39.535156 170.601562 39.832031 168.179688 40.191406 165.769531 C 40.546875 163.355469 40.964844 160.953125 41.441406 158.558594 C 41.917969 156.167969 42.453125 153.785156 43.042969 151.421875 C 43.636719 149.054688 44.289062 146.703125 44.996094 144.371094 C 45.703125 142.035156 46.46875 139.71875 47.289062 137.421875 C 48.113281 135.125 48.992188 132.851562 49.925781 130.597656 C 50.859375 128.34375 51.847656 126.113281 52.890625 123.90625 C 53.933594 121.703125 55.027344 119.523438 56.179688 117.371094 C 57.328125 115.222656 58.53125 113.097656 59.785156 111.007812 C 61.039062 108.914062 62.34375 106.851562 63.699219 104.824219 C 65.054688 102.796875 66.457031 100.804688 67.910156 98.84375 C 69.363281 96.882812 70.867188 94.960938 72.414062 93.074219 C 73.960938 91.191406 75.554688 89.34375 77.191406 87.535156 C 78.828125 85.726562 80.511719 83.960938 82.238281 82.238281 C 83.960938 80.511719 85.726562 78.828125 87.535156 77.191406 C 89.34375 75.554688 91.191406 73.960938 93.074219 72.414062 C 94.960938 70.867188 96.882812 69.363281 98.84375 67.910156 C 100.804688 66.457031 102.796875 65.054688 104.824219 63.699219 C 106.851562 62.34375 108.914062 61.039062 111.007812 59.785156 C 113.097656 58.53125 115.222656 57.328125 117.371094 56.179688 C 119.523438 55.027344 121.703125 53.933594 123.90625 52.890625 C 126.113281 51.847656 128.34375 50.859375 130.597656 49.925781 C 132.851562 48.992188 135.125 48.113281 137.421875 47.289062 C 139.71875 46.46875 142.035156 45.703125 144.371094 44.996094 C 146.703125 44.289062 149.054688 43.636719 151.421875 43.042969 C 153.785156 42.453125 156.167969 41.917969 158.558594 41.441406 C 160.953125 40.964844 163.355469 40.546875 165.769531 40.191406 C 168.179688 39.832031 170.601562 39.535156 173.027344 39.296875 C 175.457031 39.054688 177.890625 38.875 180.324219 38.757812 C 182.761719 38.636719 185.199219 38.578125 187.640625 38.578125 C 190.078125 38.578125 192.515625 38.636719 194.953125 38.757812 C 197.390625 38.875 199.824219 39.054688 202.25 39.296875 C 204.679688 39.535156 207.097656 39.832031 209.511719 40.191406 C 211.925781 40.546875 214.328125 40.964844 216.71875 41.441406 C 219.113281 41.917969 221.492188 42.453125 223.859375 43.042969 C 226.226562 43.636719 228.574219 44.289062 230.910156 44.996094 C 233.246094 45.703125 235.558594 46.46875 237.855469 47.289062 C 240.15625 48.113281 242.429688 48.992188 244.683594 49.925781 C 246.9375 50.859375 249.167969 51.847656 251.371094 52.890625 C 253.578125 53.933594 255.757812 55.027344 257.90625 56.179688 C 260.058594 57.328125 262.179688 58.53125 264.273438 59.785156 C 266.367188 61.039062 268.425781 62.34375 270.453125 63.699219 C 272.484375 65.054688 274.476562 66.457031 276.4375 67.910156 C 278.394531 69.363281 280.316406 70.867188 282.203125 72.414062 C 284.089844 73.960938 285.9375 75.554688 287.742188 77.191406 C 289.550781 78.828125 291.316406 80.511719 293.042969 82.238281 C 294.769531 83.960938 296.449219 85.726562 298.085938 87.535156 C 299.726562 89.34375 301.320312 91.191406 302.867188 93.074219 C 304.414062 94.960938 305.914062 96.882812 307.367188 98.84375 C 308.820312 100.804688 310.226562 102.796875 311.582031 104.824219 C 312.9375 106.851562 314.242188 108.914062 315.496094 111.007812 C 316.75 113.097656 317.953125 115.222656 319.101562 117.371094 C 320.25 119.523438 321.347656 121.703125 322.390625 123.90625 C 323.433594 126.113281 324.421875 128.34375 325.355469 130.597656 C 326.289062 132.851562 327.167969 135.125 327.988281 137.421875 C 328.808594 139.71875 329.574219 142.035156 330.285156 144.371094 C 330.992188 146.703125 331.640625 149.054688 332.234375 151.421875 C 332.828125 153.785156 333.363281 156.167969 333.839844 158.558594 C 334.3125 160.953125 334.730469 163.355469 335.089844 165.769531 C 335.445312 168.179688 335.746094 170.601562 335.984375 173.027344 C 336.222656 175.457031 336.402344 177.890625 336.523438 180.324219 C 336.640625 182.761719 336.703125 185.199219 336.703125 187.640625 Z M 336.703125 187.640625"/><g clip-path="url(#a)"><path fill="#FBC02E" d="M 187.640625 8.765625 C 89.035156 8.765625 8.765625 89.035156 8.765625 187.640625 C 8.765625 286.246094 89.035156 366.515625 187.640625 366.515625 C 286.246094 366.515625 366.515625 286.246094 366.515625 187.640625 C 366.515625 89.035156 286.246094 8.765625 187.640625 8.765625 Z M 187.640625 330.738281 C 108.710938 330.738281 44.539062 266.570312 44.539062 187.640625 C 44.539062 108.710938 108.710938 44.539062 187.640625 44.539062 C 266.570312 44.539062 330.738281 108.710938 330.738281 187.640625 C 330.738281 266.570312 266.570312 330.738281 187.640625 330.738281 Z M 324.703125 115.34375 L 335.0625 109.382812 C 339.980469 118.699219 344.082031 128.460938 347.285156 138.671875 L 335.734375 141.730469 C 332.902344 132.5625 329.175781 123.765625 324.703125 115.34375 Z M 318.742188 105.058594 C 313.597656 96.933594 307.785156 89.40625 301.300781 82.402344 L 309.722656 73.980469 C 316.953125 81.730469 323.4375 90.152344 329.027344 99.097656 Z M 292.878906 73.980469 C 285.871094 67.496094 278.269531 61.683594 270.21875 56.539062 L 276.183594 46.179688 C 285.203125 51.84375 293.546875 58.328125 301.300781 65.484375 Z M 259.933594 50.578125 C 251.585938 46.105469 242.71875 42.453125 233.550781 39.546875 L 236.605469 27.992188 C 246.816406 31.125 256.582031 35.222656 265.898438 40.21875 Z M 222 36.492188 C 212.832031 34.402344 203.367188 33.136719 193.601562 32.765625 L 193.601562 20.839844 C 204.410156 21.210938 214.917969 22.628906 225.054688 24.9375 Z M 181.675781 32.765625 C 171.988281 33.136719 162.523438 34.402344 153.28125 36.492188 L 150.226562 24.9375 C 160.363281 22.628906 170.871094 21.210938 181.675781 20.839844 Z M 141.804688 39.546875 C 132.636719 42.378906 123.765625 46.105469 115.417969 50.578125 L 109.457031 40.21875 C 118.773438 35.296875 128.535156 31.199219 138.746094 27.992188 Z M 105.058594 56.539062 C 96.933594 61.683594 89.40625 67.496094 82.402344 73.980469 L 73.980469 65.558594 C 81.730469 58.328125 90.152344 51.84375 99.097656 46.253906 Z M 73.980469 82.402344 C 67.496094 89.40625 61.683594 97.011719 56.539062 105.058594 L 46.179688 99.097656 C 51.84375 90.078125 58.328125 81.730469 65.484375 73.980469 Z M 50.578125 115.34375 C 46.105469 123.691406 42.453125 132.5625 39.546875 141.730469 L 27.992188 138.671875 C 31.125 128.460938 35.222656 118.699219 40.21875 109.382812 Z M 36.492188 153.28125 C 34.402344 162.449219 33.136719 171.914062 32.765625 181.675781 L 20.839844 181.675781 C 21.210938 170.871094 22.628906 160.363281 24.9375 150.226562 Z M 32.765625 193.601562 C 33.136719 203.292969 34.402344 212.757812 36.492188 222 L 24.9375 225.054688 C 22.628906 214.917969 21.210938 204.410156 20.839844 193.601562 Z M 39.546875 233.476562 C 42.378906 242.644531 46.105469 251.511719 50.578125 259.859375 L 40.21875 265.824219 C 35.296875 256.507812 31.199219 246.742188 27.992188 236.53125 Z M 56.539062 270.21875 C 61.683594 278.34375 67.496094 285.871094 73.980469 292.878906 L 65.558594 301.300781 C 58.328125 293.546875 51.84375 285.125 46.253906 276.183594 Z M 82.402344 301.300781 C 89.40625 307.785156 97.011719 313.597656 105.058594 318.742188 L 99.097656 329.101562 C 90.078125 323.4375 81.730469 316.953125 73.980469 309.796875 Z M 115.34375 324.703125 C 123.691406 329.175781 132.5625 332.828125 141.730469 335.734375 L 138.671875 347.285156 C 128.460938 344.15625 118.699219 340.054688 109.382812 335.0625 Z M 153.28125 338.789062 C 162.449219 340.875 171.914062 342.144531 181.675781 342.515625 L 181.675781 354.441406 C 170.871094 354.066406 160.363281 352.652344 150.226562 350.339844 Z M 193.601562 342.515625 C 203.292969 342.144531 212.757812 340.875 222 338.789062 L 225.054688 350.339844 C 214.917969 352.652344 204.410156 354.066406 193.601562 354.441406 Z M 233.476562 335.734375 C 242.644531 332.902344 251.511719 329.175781 259.859375 324.703125 L 265.824219 335.0625 C 256.507812 339.980469 246.742188 344.082031 236.53125 347.285156 Z M 270.21875 318.742188 C 278.34375 313.597656 285.871094 307.785156 292.878906 301.300781 L 301.300781 309.722656 C 293.546875 316.953125 285.125 323.4375 276.183594 329.027344 Z M 301.300781 292.878906 C 307.785156 285.871094 313.597656 278.269531 318.742188 270.21875 L 329.101562 276.183594 C 323.4375 285.203125 316.953125 293.546875 309.796875 301.300781 Z M 324.703125 259.933594 C 329.175781 251.585938 332.828125 242.71875 335.734375 233.550781 L 347.285156 236.605469 C 344.15625 246.816406 340.054688 256.582031 335.0625 265.898438 Z M 338.789062 222 C 340.875 212.832031 342.144531 203.367188 342.515625 193.601562 L 354.441406 193.601562 C 354.066406 204.410156 352.652344 214.917969 350.339844 225.054688 Z M 342.515625 181.675781 C 342.144531 171.988281 340.875 162.523438 338.789062 153.28125 L 350.339844 150.226562 C 352.652344 160.363281 354.066406 170.871094 354.441406 181.675781 Z M 342.515625 181.675781"/></g><path fill="#FFF59D" d="M 223.414062 104.164062 L 122.050781 104.164062 L 122.050781 169.753906 L 98.203125 169.753906 L 98.203125 205.527344 L 122.050781 205.527344 L 122.050781 271.113281 L 223.414062 271.113281 C 253.078125 271.113281 277.078125 247.265625 277.078125 187.640625 C 277.078125 128.015625 253.078125 104.164062 223.414062 104.164062 Z M 223.414062 235.339844 L 157.828125 235.339844 L 157.828125 205.527344 L 193.601562 205.527344 L 193.601562 169.753906 L 157.828125 169.753906 L 157.828125 139.941406 L 223.414062 139.941406 C 226.394531 139.941406 241.300781 142.25 241.300781 187.640625 C 241.300781 233.03125 226.394531 235.339844 223.414062 235.339844 Z M 223.414062 235.339844"/></svg>